<?xml version="1.0" encoding="UTF-8"?>
<svg id="Calque_1" data-name="Calque 1" xmlns="http://www.w3.org/2000/svg" viewBox="0 0 2671.87 691.66">
  <polygon points="692.35 191.32 620.73 191.32 620.73 500.78 847.52 500.78 847.52 442.43 692.35 442.43 692.35 191.32"/>
  <polygon points="958.92 371.7 1102.61 371.7 1102.61 315.99 958.92 315.99 958.92 248.79 1121.61 248.79 1121.61 191.32 887.74 191.32 887.74 500.79 1127.36 500.79 1127.36 443.31 958.92 443.31 958.92 371.7"/>
  <g>
    <path d="M1390.39,274.44c8.84-8.84,19.3-15.62,31.39-20.33,12.08-4.71,25.34-7.08,39.79-7.08,15.32,0,29.47,3.03,42.44,9.07,12.97,6.04,24.76,15.11,35.37,27.19l45.98-42.45c-14.75-17.98-32.93-31.6-54.6-40.89-21.66-9.28-45.9-13.92-72.72-13.92-24.16,0-46.41,3.9-66.75,11.71-20.33,7.82-38.1,18.94-53.28,33.38-15.18,14.44-26.97,31.39-35.37,50.84-8.4,19.46-12.59,40.83-12.59,64.1s4.19,44.66,12.59,64.11c8.4,19.45,20.12,36.39,35.15,50.84,15.03,14.44,32.79,25.57,53.28,33.38,20.47,7.81,42.66,11.71,66.53,11.71,27.12,0,51.51-4.72,73.17-14.15,21.67-9.43,39.85-23.14,54.6-41.11l-45.98-42.45c-10.61,12.38-22.4,21.59-35.37,27.63-12.97,6.04-27.12,9.07-42.45,9.07-14.44,0-27.7-2.36-39.78-7.08-12.09-4.71-22.55-11.49-31.39-20.33-8.84-8.84-15.69-19.3-20.56-31.39-4.87-12.08-7.3-25.49-7.3-40.23s2.43-28.13,7.3-40.22c4.87-12.08,11.71-22.55,20.56-31.39"/>
    <polygon points="1701.18 191.32 1629.56 191.32 1629.56 500.78 1856.35 500.78 1856.35 442.43 1701.18 442.43 1701.18 191.32"/>
    <path d="M2099.5,361.97c0,29.47-6.04,50.7-18.12,63.66-12.09,12.97-29.03,19.46-50.85,19.46s-38.75-6.49-50.84-19.46c-12.09-12.96-18.12-34.18-18.12-63.66v-170.65h-71.62v173.3c0,45.39,12.38,80.31,37.13,104.77,24.76,24.47,59.09,36.69,103.01,36.69s78.25-12.22,103-36.69c24.76-24.46,37.13-59.38,37.13-104.77v-173.3h-70.74v170.65Z"/>
    <path d="M2512.18,370.81c-8.4-12.38-20.11-21.73-35.15-28.07-2.73-1.15-5.56-2.16-8.44-3.1,11.98-6.33,21.59-14.87,28.77-25.64,7.96-11.93,11.94-26.01,11.94-42.22,0-24.16-9.81-43.61-29.4-58.36-19.6-14.73-48.86-22.1-87.76-22.1h-151.19v309.47h160.04c40.67,0,71.47-7.45,92.39-22.33,20.93-14.88,31.39-35.59,31.39-62.11,0-17.97-4.2-33.16-12.6-45.54M2312.14,245.26h71.17c17.39,0,30.73,3.03,40.01,9.07,9.29,6.04,13.92,15.11,13.92,27.19s-4.63,21.59-13.92,27.62c-9.28,6.04-22.62,9.07-40.01,9.07h-71.17v-72.95ZM2437.91,437.79c-9.58,6.04-23.66,9.07-42.22,9.07h-83.55v-76.48h83.55c18.57,0,32.64,3.16,42.22,9.5,9.57,6.34,14.37,16,14.37,28.96s-4.79,22.92-14.37,28.96"/>
    <path d="M276.05,350.87c-.68-3.58-2.04-7.64-4.25-11.92,4.31,2.1,8.28,3.37,11.85,4.14,3.57.71,7.34.35,11.26-.91,3.93-1.13,7.61-3.52,11.08-7.01,5.68-5.67,8.95-11.99,9.71-19.01.75-6.95-1.13-12.77-5.65-17.25-4.06-4-8.71-6.73-13.92-8.21-5.26-1.41-12.41-2.24-21.49-2.24-12.2-.15-20.37-.34-24.62-.78-4.25-.28-9.4-1.05-15.57-2.31-6.14-1.26-10.38-2.45-12.67-3.37-2.1-.64-3.5-.92-4.31-.7-.81.14-1.54.56-2.14,1.19-.67.71-1.08,1.41-1.18,2.24-.12.85.19,2.18.9,4.01.82,2.45,1.88,6.6,3.15,12.84,1.32,6.03,2.14,11.29,2.49,15.56.31,4.22.53,12.42.65,24.62.09,8.62.82,15.71,2.16,21.04,1.35,5.33,4.04,9.9,8,13.9,4.86,4.91,10.8,6.94,17.79,6.04,6.95-.92,13.24-4.07,18.82-9.62,3.44-3.43,5.78-7.15,7.01-11.01,1.26-3.92,1.54-7.65.92-11.22"/>
    <path d="M434.25,286.35c-3.82.49-9.4.63-16.73.43-12.91-.43-21.95-.43-27.28.06-5.33.42-10.39,1.55-15.14,3.38-4.86,1.81-8.84,4.34-12.01,7.49-3,3.01-5.28,6.73-6.94,11.08-1.65,4.34-1.82,8.7-.49,12.84,1.22,4.14,3.15,7.36,5.68,9.95,2.15,2.17,4.77,3.78,8,5.04,3.19,1.2,6.19,1.77,8.97,1.77,2.78-.07,6.55-.56,11.36-1.34-6.49,5.68-12.3,10.04-17.57,13.32l15.18,15.24c3.3-5.34,7.72-11.09,13.33-17.62-.8,4.99-1.27,8.84-1.33,11.51,0,2.81.6,5.76,1.79,8.98,1.2,3.16,2.88,5.75,5.04,7.92,2.56,2.53,5.9,4.36,10,5.68,4.18,1.27,8.38,1.05,12.82-.56,4.37-1.61,8.05-3.91,11.07-6.94,3.09-3.08,5.6-7.08,7.56-12.06,1.98-4.97,3.06-10.58,3.4-16.76.31-6.24.31-14.73,0-25.59-.18-7.3-.03-12.91.42-16.77.5-3.72,1.27-7.29,2.35-10.52.78-2.17,1.24-3.71,1.44-4.56.21-.91,1.54-3.29,1.27-4.49l-2.54-2.53c-1.22-.35-3.64,1.05-4.49,1.26-.87.22-2.38.64-4.63,1.42-3.23,1.05-6.77,1.88-10.56,2.38"/>
    <polygon points="367.44 272.32 335.32 232.62 303.19 272.32 335.32 312.02 367.44 272.32"/>
    <path d="M390.03,382.51c-5.78-5.05-12.5-7.65-20-7.65-3.08,0-6.98.71-11.7,2.04,2.12-3.44,3.62-6.32,4.51-8.77.89-2.39,1.33-5.05,1.33-7.93,0-7.29-2.86-13.46-8.52-18.44-5.68-5.12-12.44-7.64-20.39-7.64s-14.64,2.53-20.29,7.64c-5.66,4.98-8.52,11.15-8.52,18.44,0,2.88.44,5.54,1.4,7.93.86,2.45,2.31,5.33,4.35,8.77-4.63-1.32-8.46-2.04-11.5-2.04-7.63,0-14.34,2.6-20.09,7.65-5.79,5.13-8.7,11.92-8.7,20.41s2.81,15.08,8.46,20.33c5.58,5.4,12.1,7.93,19.49,7.93,4.25,0,8.67-1.19,13.22-3.43,4.6-2.39,9.33-6.87,14.22-13.62-1.1,10.74-9.17,57.94-9.17,57.94h34.33s-8.07-47.2-9.19-57.94c4.88,6.68,9.58,11.17,14.1,13.62,4.52,2.24,8.98,3.43,13.32,3.43,7.44,0,13.96-2.53,19.57-7.93,5.62-5.25,8.44-12.13,8.44-20.33s-2.92-15.28-8.67-20.41"/>
    <path d="M335.66,157.22c-103.98,0-188.58,84.59-188.58,188.54s84.59,188.67,188.58,188.67,188.62-84.67,188.62-188.67-84.59-188.54-188.62-188.54M335.66,503.36c-86.86,0-157.53-70.7-157.53-157.6s70.67-157.47,157.53-157.47,157.53,70.7,157.53,157.47-70.64,157.6-157.53,157.6"/>
  </g>
</svg>