<?xml version="1.0" encoding="UTF-8"?>
<svg id="Calque_1" xmlns="http://www.w3.org/2000/svg" version="1.1" viewBox="0 0 2202.1 1080.2">
  <!-- Generator: Adobe Illustrator 29.6.1, SVG Export Plug-In . SVG Version: 2.1.1 Build 9)  -->
  <defs>
    <style>
      .st0 {
        fill: #fff;
      }
    </style>
  </defs>
  <g>
    <path class="st0" d="M343.6,419.9c5.9,2.9,11.4,4.6,16.3,5.7,4.9,1,10,.5,15.4-1.3,5.4-1.5,10.4-4.8,15.2-9.6,7.8-7.8,12.3-16.4,13.3-26.1,1-9.5-1.5-17.5-7.7-23.7-5.6-5.5-12-9.2-19.1-11.2-7.2-1.9-17-3.1-29.5-3.1-16.7-.2-27.9-.5-33.7-1.1-5.8-.4-12.9-1.4-21.3-3.2-8.4-1.7-14.2-3.4-17.3-4.6-2.9-.9-4.8-1.3-5.9-1-1.1.2-2.1.8-2.9,1.6-.9,1-1.5,1.9-1.6,3.1-.2,1.1.3,3,1.2,5.5,1.1,3.3,2.6,9,4.3,17.6,1.8,8.3,2.9,15.5,3.4,21.3.4,5.8.7,17,.9,33.7.1,11.8,1.1,21.5,3,28.8,1.9,7.3,5.5,13.6,11,19,6.7,6.7,14.8,9.5,24.4,8.3,9.5-1.2,18.1-5.6,25.8-13.2,4.7-4.7,7.9-9.8,9.6-15.1,1.7-5.4,2.1-10.5,1.3-15.4-.9-4.9-2.8-10.5-5.8-16.3"/>
    <path class="st0" d="M587.1,342.6c-1.2.3-3.3.9-6.3,1.9-4.4,1.4-9.3,2.6-14.5,3.3-5.2.7-12.9.9-22.9.6-17.7-.6-30.1-.6-37.4,0-7.3.6-14.2,2.1-20.8,4.6-6.6,2.5-12.1,6-16.4,10.3-4.1,4.1-7.2,9.2-9.5,15.2-2.3,6-2.5,11.9-.7,17.6,1.7,5.7,4.3,10.1,7.8,13.6,2.9,3,6.5,5.2,11,6.9,4.4,1.6,8.5,2.4,12.3,2.4,3.8-.1,9-.8,15.6-1.8-8.9,7.8-16.9,13.7-24.1,18.3l20.8,20.9c4.5-7.3,10.6-15.2,18.3-24.1-1.1,6.8-1.7,12.1-1.8,15.8,0,3.8.8,7.9,2.4,12.3,1.7,4.3,3.9,7.9,6.9,10.9,3.5,3.4,8.1,6,13.7,7.8,5.7,1.7,11.5,1.4,17.6-.8,6-2.2,11-5.4,15.2-9.5,4.2-4.2,7.7-9.7,10.4-16.6,2.7-6.8,4.2-14.5,4.7-23,.4-8.6.4-20.2,0-35.1-.2-10,0-17.7.6-23,.7-5.1,1.7-10,3.2-14.4,1.1-3,1.7-5.1,2-6.2.3-1.2,2.1-4.5,1.7-6.2l-3.5-3.5c-1.7-.5-5,1.4-6.1,1.7"/>
  </g>
  <polygon class="st0" points="430.7 274.2 474.7 328.6 430.7 383 386.7 328.6 430.7 274.2"/>
  <g>
    <path class="st0" d="M399,471.9c-2.8-4.7-4.8-8.7-6-12-1.3-3.3-1.9-6.9-1.9-10.9,0-10,3.9-18.5,11.7-25.3,7.7-7,17-10.5,27.8-10.5s20.2,3.5,28,10.5c7.8,6.8,11.7,15.3,11.7,25.3s-.6,7.6-1.8,10.9c-1.2,3.4-3.3,7.3-6.2,12,6.5-1.8,11.8-2.8,16.1-2.8,10.3,0,19.5,3.6,27.4,10.5,7.9,7,11.9,16.3,11.9,28s-3.9,20.7-11.6,27.9c-7.7,7.4-16.6,10.9-26.8,10.9s-12.1-1.6-18.3-4.7c-6.2-3.4-12.6-9.5-19.3-18.6,1.5,14.7,12.6,79.4,12.6,79.4h-47s11-64.7,12.6-79.4c-6.7,9.2-13.2,15.4-19.5,18.6-6.3,3.1-12.3,4.7-18.1,4.7-10.1,0-19.1-3.5-26.7-10.9-7.7-7.2-11.6-16.6-11.6-27.9s4-20.9,11.9-28c7.9-6.9,17.1-10.5,27.5-10.5s9.4,1,15.8,2.8"/>
    <path class="st0" d="M431.2,645.2c-119,0-215.9-96.9-215.9-216s96.8-215.8,215.9-215.8,215.9,96.9,215.9,215.8-96.8,216-215.9,216M431.2,170.9c-142.5,0-258.4,115.9-258.4,258.4s115.9,258.5,258.4,258.5,258.5-116,258.5-258.5-115.9-258.4-258.5-258.4"/>
    <path class="st0" d="M1374.7,574c77.3,0,140.7-65.3,140.7-146s-62.8-145-140.7-145-141.5,65.3-141.5,145,63.4,146,141.5,146M1374.7,649.5c-128.1,0-226.3-95.7-226.3-220s99.6-221.9,226.3-221.9,225.7,97,225.7,220.5-99.5,221.4-225.7,221.4"/>
    <path class="st0" d="M845.8,608.5c-17-18.9-23.4-35.3-26-68.7h82.5c5.6,21.7,17.5,32.2,34.2,32.2,23.9,0,37.4-17,37.4-48.2V217h82.4v301.6c0,81.1-45.3,131.3-119.8,131.3s-67.9-15.6-90.6-41.4"/>
  </g>
  <path class="st0" d="M1748.8,570.1l-28.7,71h-88.2c0,0,198.7-455,198.7-455l198.8,455.1h-88.3c0,0-28.7-71.1-28.7-71.1h-163.6ZM1775.5,504.5h110.2l-54.7-136.4-55.5,136.4Z"/>
  <g>
    <path class="st0" d="M213.8,820v55.6c0,16.8-3.2,33.8-23.7,33.8s-9.4-1.3-13.7-3.8l5.5-9.3c2.4,1.9,5.6,2.9,8.7,2.9,12.5,0,12.3-14.6,12.3-23.6v-55.6h10.9Z"/>
    <path class="st0" d="M330.3,863.7c0-19.3-14.4-35.4-34.9-35.4s-34.9,16.1-34.9,35.4,16,35.4,34.9,35.4,34.9-15.4,34.9-35.4M341.2,863.7c0,26-20.5,45.6-45.8,45.6s-45.8-19.6-45.8-45.6,20.8-45.6,45.8-45.6,45.8,20.5,45.8,45.6"/>
    <path class="st0" d="M387.9,820v51.6c0,14.3,4.3,27.5,21.1,27.5s21.1-13.2,21.1-27.5v-51.6h10.9v55.3c0,19.3-11.9,34-32,34s-32-14.7-32-34v-55.3h10.9Z"/>
  </g>
  <polygon class="st0" points="482.8 820 529.8 820 529.8 830 493.7 830 493.7 854.4 528.8 854.4 528.8 864.4 493.7 864.4 493.7 897.5 529.8 897.5 529.8 907.5 482.8 907.5 482.8 820"/>
  <path class="st0" d="M580.9,861.4h3.5c11.1,0,23.2-2.1,23.2-16s-13-15.7-23.8-15.7h-2.9v31.7ZM624.4,907.5h-13.2l-25.8-37h-4.5v37h-10.9v-87.5h13.2c7.8,0,16.1.1,23.1,4.1,7.3,4.3,11.5,12.5,11.5,20.9,0,12.5-8.4,23-21,24.5l27.6,38Z"/>
  <rect class="st0" x="696.1" y="865.9" width="25.4" height="8.7"/>
  <g>
    <path class="st0" d="M875.8,863.7c0-19.3-14.4-35.4-34.9-35.4s-34.9,16.1-34.9,35.4,16,35.4,34.9,35.4,34.9-15.4,34.9-35.4M886.8,863.7c0,26-20.5,45.6-45.8,45.6s-45.8-19.6-45.8-45.6,20.8-45.6,45.8-45.6,45.8,20.5,45.8,45.6"/>
    <path class="st0" d="M962.9,836.6c-3.2-5.5-7.4-8.2-14-8.2s-14.6,4.8-14.6,12.4,6.7,10.4,12.2,12.5l6.3,2.4c12.4,4.9,21.7,11.7,21.7,26.3s-12.3,27.3-28,27.3-25.2-10.4-27-24.5l11-2.3c-.1,9.6,7.5,16.6,16.9,16.6s16.1-7.9,16.1-17.1-7.5-13.5-15.1-16.6l-6-2.6c-10-4.3-19-10-19-22.2s12.5-22.6,25.8-22.6,17.7,4.8,22.5,13.2l-8.7,5.2Z"/>
  </g>
  <polygon class="st0" points="1013 820 1060 820 1060 830 1023.9 830 1023.9 854.4 1059 854.4 1059 864.4 1023.9 864.4 1023.9 897.5 1060 897.5 1060 907.5 1013 907.5 1013 820"/>
  <path class="st0" d="M1111.1,861.4h3.5c11.1,0,23.2-2.1,23.2-16s-13-15.7-23.8-15.7h-2.9v31.7ZM1154.6,907.5h-13.2l-25.8-37h-4.5v37h-10.9v-87.5h13.2c7.8,0,16.1.1,23.1,4.1,7.3,4.3,11.5,12.5,11.5,20.9,0,12.5-8.4,23-21,24.5l27.6,38Z"/>
  <rect class="st0" x="1226.3" y="865.9" width="25.4" height="8.7"/>
  <path class="st0" d="M1370.3,836.6c-3.2-5.5-7.4-8.2-14-8.2s-14.6,4.8-14.6,12.4,6.7,10.4,12.2,12.5l6.3,2.4c12.4,4.9,21.7,11.7,21.7,26.3s-12.3,27.3-28,27.3-25.2-10.4-27-24.5l11-2.3c-.1,9.6,7.5,16.6,16.9,16.6s16.1-7.9,16.1-17.1-7.5-13.5-15.1-16.6l-6-2.6c-10-4.3-19-10-19-22.2s12.5-22.6,25.8-22.6,17.7,4.8,22.5,13.2l-8.7,5.2Z"/>
  <polygon class="st0" points="1437.3 821.7 1421.9 852.7 1415.4 850 1428.1 818.1 1437.3 821.7"/>
  <path class="st0" d="M1502.5,840.2l-15.5,35.4h31.1l-15.5-35.4ZM1482.4,885.5l-10,21.9h-11.7l41.8-91.2,41.8,91.2h-11.7l-10-21.9h-40.1Z"/>
  <polygon class="st0" points="1583.9 849.7 1583.6 849.7 1573.4 907.5 1562.2 907.5 1580 816.3 1610.1 885.2 1640.1 816.3 1658 907.5 1646.7 907.5 1636.5 849.7 1636.3 849.7 1610.1 909.3 1583.9 849.7"/>
  <g>
    <path class="st0" d="M1703.9,820v51.6c0,14.3,4.3,27.5,21.1,27.5s21.1-13.2,21.1-27.5v-51.6h10.9v55.3c0,19.3-12,34-32,34s-32-14.7-32-34v-55.3h10.9Z"/>
    <path class="st0" d="M1837.7,836.6c-3.3-5.5-7.4-8.2-14-8.2s-14.6,4.8-14.6,12.4,6.7,10.4,12.2,12.5l6.3,2.4c12.4,4.9,21.7,11.7,21.7,26.3s-12.3,27.3-28,27.3-25.2-10.4-27-24.5l11-2.3c-.1,9.6,7.5,16.6,16.9,16.6s16.1-7.9,16.1-17.1-7.5-13.5-15.1-16.6l-6-2.6c-10-4.3-19-10-19-22.2s12.5-22.6,25.8-22.6,17.7,4.8,22.5,13.2l-8.7,5.2Z"/>
  </g>
  <polygon class="st0" points="1887.8 820 1934.8 820 1934.8 830 1898.7 830 1898.7 854.4 1933.7 854.4 1933.7 864.4 1898.7 864.4 1898.7 897.5 1934.8 897.5 1934.8 907.5 1887.8 907.5 1887.8 820"/>
  <path class="st0" d="M1985.9,861.4h3.5c11.1,0,23.2-2.1,23.2-16s-13-15.7-23.8-15.7h-2.9v31.7ZM2029.4,907.5h-13.2l-25.8-37h-4.5v37h-10.9v-87.5h13.2c7.8,0,16.1.1,23.1,4.1,7.3,4.3,11.5,12.5,11.5,20.9,0,12.5-8.4,23-21,24.5l27.6,38Z"/>
</svg>